<?xml version="1.0" encoding="UTF-8" standalone="no"?>
<svg
   xmlns:dc="http://purl.org/dc/elements/1.1/"
   xmlns:cc="http://creativecommons.org/ns#"
   xmlns:rdf="http://www.w3.org/1999/02/22-rdf-syntax-ns#"
   xmlns:svg="http://www.w3.org/2000/svg"
   xmlns="http://www.w3.org/2000/svg"
   xmlns:sodipodi="http://sodipodi.sourceforge.net/DTD/sodipodi-0.dtd"
   xmlns:inkscape="http://www.inkscape.org/namespaces/inkscape"
   height="100"
   width="100"
   version="1.1"
   id="svg41"
   sodipodi:docname="autumn.svg"
   inkscape:version="0.92.1 unknown">
  <metadata
     id="metadata47">
    <rdf:RDF>
      <cc:Work
         rdf:about="">
        <dc:format>image/svg+xml</dc:format>
        <dc:type
           rdf:resource="http://purl.org/dc/dcmitype/StillImage" />
      </cc:Work>
    </rdf:RDF>
  </metadata>
  <defs
     id="defs45" />
  <sodipodi:namedview
     pagecolor="#ffffff"
     bordercolor="#666666"
     borderopacity="1"
     objecttolerance="10"
     gridtolerance="10"
     guidetolerance="10"
     inkscape:pageopacity="0"
     inkscape:pageshadow="2"
     inkscape:window-width="1920"
     inkscape:window-height="1056"
     id="namedview43"
     showgrid="false"
     inkscape:zoom="9.02"
     inkscape:cx="46.674058"
     inkscape:cy="50.332594"
     inkscape:window-x="0"
     inkscape:window-y="24"
     inkscape:window-maximized="1"
     inkscape:current-layer="svg41" />
  <path
     d="m 51.312,6.031 c -13.094,0 -23.718,10.6 -23.718,23.688 0,0.296 0.08,0.58 0.094,0.875 -0.296,-0.02 -0.58,-0.094 -0.876,-0.094 -7.044,0 -12.75,5.705 -12.75,12.75 0,0.087 0.032,0.194 0.032,0.281 -1.008,-0.302 -2.054,-0.53 -3.156,-0.53 C 4.894,43 0,47.9 0,53.937 0,59.979 4.894,62.28 10.938,62.28 H 81.25 C 91.608,62.28 100,53.89 100,43.53 100,33.17 91.609,24.78 81.25,24.78 c -2.34,0 -4.568,0.47 -6.625,1.25 -1.788,-11.32 -11.495,-20 -23.313,-20 z m -27.843,62.439 -9.031,24.78 5.826135,0.72 9.313,-25.5 z m 17.219,0 -9.032,24.78 5.827135,0.72 9.281,-25.5 z m 17.218,0 -9.031,24.78 5.826135,0.72 9.282,-25.5 z m 17.188,0 -9,24.781 5.826135,0.72 9.281,-25.5 H 75.094 Z"
     id="path39"
     inkscape:connector-curvature="0"
     sodipodi:nodetypes="cscssccssssscccccccccccccccccccccccc" />
</svg>
