<svg xmlns="http://www.w3.org/2000/svg" width="100" height="100" viewBox="0 0 93.750002 93.749999"><path d="M34.832 69.499l-2.113-2.782-3.464-3.972-3.963-3.164-4.479-2.84-1.953-1.026 1.223-5.887 1.223-6.09.12-.224 1.598.744 1.478.744 2.298 2.314 2.297 2.315 1.043 1.677 1.1 1.677 7.691-8.05 9.563-9.035 7.024-5.521 9.074-6.264 4.504 5.628 5.099 6.458.695.947-4.912 2.849-4.91 2.757-5.17 3.627-12.961 10.09-3.53 3.182-2.968 3.354-4.164 4.99-1.277 1.638z"/><path d="M14.063 0A14.032 14.032 0 0 0 0 14.063v65.624C0 87.478 6.272 93.75 14.063 93.75h65.624c7.791 0 14.063-6.272 14.063-14.063V14.064C93.75 6.271 87.478 0 79.687 0H14.064zM9.787 9.787h74.176v74.176H9.787V9.787z"/></svg>