<svg xmlns="http://www.w3.org/2000/svg" viewBox="0 0 100 100" width="100" height="100"><path d="M18.314 11.773l-8.691 8.745 11.39 11.322C5.85 40.815 0 54.559 0 54.559s10.183 7.787 24.111 13.394l-13.603 13.52 8.69 8.742 18.208-18.098c4.11.9 8.346 1.451 12.594 1.451 3.976 0 7.923-.46 11.756-1.236L79.75 90.215l8.69-8.742L75.19 68.307C89.565 62.68 100 54.559 100 54.559s-6.304-14.024-21.795-22.99l11.12-11.051-8.69-8.745-14.711 14.622C61.185 25.062 55.896 24.258 50 24.258c-6.277 0-11.846.88-16.791 2.318zm55.782 23.88C89.703 42.677 96.71 54.62 96.71 54.62s-9.948 7.05-23.178 12.037l-4.219-4.193a22.783 22.783 0 0 0 3.6-12.31v-.003a22.77 22.77 0 0 0-2.654-10.687zm-49.004.238l4.295 4.27a22.796 22.796 0 0 0-2.295 9.993c0 4.26 1.17 8.244 3.195 11.66l-4.539 4.51C12.944 61.364 3.295 54.621 3.295 54.621v-.002s6.528-11.673 21.797-18.728z"/></svg>