<svg xmlns="http://www.w3.org/2000/svg" viewBox="0 0 100 100" width="100" height="100"><path d="M50 24.258c-37.142 0-50 30.3-50 30.3s24.827 19.01 50 19.01c25.585 0 50-19.01 50-19.01s-13.595-30.3-50-30.3zM35.727 32.24c-5.262 4.198-8.635 10.66-8.635 17.914 0 8.725 4.876 16.309 12.053 20.178-18.832-3.81-35.85-15.71-35.85-15.71v-.003s9.503-17.021 32.432-22.379zm28.66.086C86.829 37.772 96.71 54.621 96.71 54.621S79.827 66.616 60.77 70.38c7.225-3.854 12.144-11.464 12.144-20.225v-.002c0-7.203-3.328-13.626-8.527-17.826zm-27.258 3.408a5.137 5.137 0 0 1 4.986 5.135 5.137 5.137 0 0 1-10.273 0 5.137 5.137 0 0 1 5.287-5.135z"/><path d="M9.624 20.517l8.69-8.743L88.44 81.472l-8.69 8.743z"/><path d="M89.324 20.518l-8.69-8.744-70.126 69.698 8.69 8.743z"/></svg>