<svg xmlns="http://www.w3.org/2000/svg" viewBox="0 0 100 100" width="100" height="100"><path d="M54.415 40.495a1.32 1.32 0 0 0-.47.142c-1.07.533-.19 15.916-4.626 29.813-1.532-3.765-7.34-8.757-15.328-12.735-10.797-5.376-21.479-6.866-23.843-3.325-2.364 3.542 4.478 10.778 15.275 16.154 9.1 4.532 18.099 6.29 22.126 4.615-1.16 2.68-2.537 5.243-4.253 7.518-11.24 14.898-29.579 11.107-30.074 11.942-5.224 8.804 21.592 6.21 32.832-8.689 2.683-3.557 4.83-8.148 6.477-13.038.04.063.06.136.107.195 2.594 3.412 12.876.996 22.952-5.393 10.075-6.388 16.145-14.34 13.551-17.752-2.595-3.41-12.876-.995-22.952 5.393-5.048 3.2-9.094 6.793-11.545 10.012 2.927-12.782 2.685-25.117-.23-24.852z"/><path d="M407.09 61.562c-34.508.678-59.169 23.756-39.688 78.812 21.892 61.892 28.973 102.27 29.812 128.59 1.187 1.35 2.38 2.712 3.531 4 8.301-6.373 18.25-10.094 28.97-10.094 9.403 0 18.213 2.87 25.843 7.875.902-.308 1.816-.632 2.75-.969 10.08-17.01 23-37.24 39.69-61.33 57.33-82.7-31.44-148.05-90.91-146.88zm51.219 208.22c-.404.683-.792 1.36-1.188 2.031 14.98 10.635 24.97 29.69 24.97 51.47 0 2.064-.075 4.113-.25 6.124 18.196 4.225 39.7 9.877 65.187 17.531 152.32 45.752 150.62-242.02 24.406-145.25-52.124 39.97-88.347 59.164-113.12 68.094zm-61.094-.813c-13.06-14.84-28.32-33.38-46.06-56.69-96.38-126.55-264.13 107.32-105.13 103.19 65.558-1.695 106.1 4.053 131.41 11.375-.059-1.175-.125-2.37-.125-3.562 0-19.247 7.816-36.371 19.969-47.438.021-2.183.014-4.462-.063-6.875zm-19.781 57.938c-18.131 7.827-40.411 16.593-68 26.25-150.17 52.49 20.38 284.33 65.62 131.84 14.27-48.13 28.17-80.98 40.53-103.53-21.1-6.8-36.82-28.44-38.15-54.56zm103.81 7.15c-4.406 28.233-25.787 49.656-51.531 49.656-.515 0-1.02-.014-1.531-.03 1.053 15.335 1.866 32.743 2.312 52.655 3.568 159 276.71 68.458 145.62-21.688-49.12-33.78-77.9-60.4-94.87-80.59z" stroke="#000" stroke-width="22.79" stroke-linejoin="round" transform="matrix(.12739 0 0 .11324 1.631 -5.235)"/></svg>