<svg xmlns="http://www.w3.org/2000/svg" viewBox="0 0 100 100"><path d="M49.895 39.914c5.5 0 9.978 4.472 9.978 9.978 0 5.495-4.478 9.978-9.978 9.978-5.501 0-9.979-4.482-9.979-9.978 0-5.506 4.478-9.978 9.979-9.978m0-9.978c-11.023 0-19.956 8.935-19.956 19.956 0 11.016 8.933 19.956 19.956 19.956 11.02 0 19.955-8.94 19.955-19.956 0-11.021-8.936-19.956-19.955-19.956zM49.895 19.958a4.991 4.991 0 0 1-4.992-4.991V4.989A4.988 4.988 0 0 1 49.895 0a4.984 4.984 0 0 1 4.986 4.989v9.978a4.987 4.987 0 0 1-4.986 4.991zM74.592 30.183a4.974 4.974 0 0 1-3.528-1.456 4.996 4.996 0 0 1 0-7.062l7.057-7.054a4.984 4.984 0 0 1 7.052 0 4.986 4.986 0 0 1 0 7.054l-7.052 7.062a4.98 4.98 0 0 1-3.529 1.456zM94.797 54.883h-9.978c-2.756 0-4.992-2.231-4.992-4.986s2.236-4.989 4.992-4.989h9.978a4.988 4.988 0 0 1 0 9.975zM81.636 86.64a4.947 4.947 0 0 1-3.525-1.466l-7.057-7.054a4.98 4.98 0 0 1 0-7.049 4.99 4.99 0 0 1 7.057 0l7.051 7.049a4.986 4.986 0 0 1 0 7.054 4.957 4.957 0 0 1-3.526 1.466zM49.879 99.786a4.987 4.987 0 0 1-4.991-4.986v-9.979a4.99 4.99 0 1 1 9.982 0V94.8a4.987 4.987 0 0 1-4.991 4.986zM18.127 86.625a4.946 4.946 0 0 1-3.526-1.461 4.992 4.992 0 0 1 0-7.059l7.051-7.055a4.99 4.99 0 0 1 7.057 0 4.987 4.987 0 0 1 0 7.055l-7.057 7.059a4.94 4.94 0 0 1-3.525 1.461zM14.967 54.868h-9.98A4.987 4.987 0 0 1 0 49.881a4.982 4.982 0 0 1 4.986-4.989h9.98a4.988 4.988 0 1 1 .001 9.976zM25.204 30.178a4.987 4.987 0 0 1-3.528-1.466l-7.057-7.051a4.99 4.99 0 0 1 0-7.057 4.999 4.999 0 0 1 7.057 0l7.054 7.057a4.982 4.982 0 0 1 0 7.051 4.995 4.995 0 0 1-3.526 1.466z"/></svg>