<svg xmlns="http://www.w3.org/2000/svg" viewBox="0 0 93.75 93.749999" width="100" height="100"><title>Snowflake (Monchrome; Icon)</title><path d="M47.077.15c-3.111 0-5.708 2.472-5.708 5.433v3.594a5.916 5.916 0 0 0-6.987-.376c-2.562 1.68-3.228 5.118-1.462 7.557l8.449 11.672v9.509l-8.653-4.755-6.396-12.802c-1.335-2.674-4.795-3.845-7.606-2.573a5.628 5.628 0 0 0-2.466 2.142 5.24 5.24 0 0 0-.685 3.807l-3.269-1.797c-2.694-1.48-6.24-.572-7.795 1.991-1.554 2.563-.604 5.94 2.09 7.42l3.269 1.797c-1.332.435-2.447 1.326-3.124 2.468-.543.917-.808 2-.715 3.105.248 2.952 3.043 5.22 6.144 4.983l14.844-1.13 8.653 4.755-4.62 2.54-4.033 2.216-14.844-1.129c-3.1-.236-5.896 2.032-6.144 4.984a5.235 5.235 0 0 0 .715 3.105c.676 1.141 1.79 2.032 3.12 2.468l-3.266 1.794c-2.696 1.482-3.644 4.859-2.089 7.422 1.555 2.564 5.103 3.468 7.795 1.989l3.27-1.797a5.24 5.24 0 0 0 .684 3.81 5.631 5.631 0 0 0 2.466 2.139c2.808 1.27 6.27.105 7.606-2.57l6.396-12.804 4.03-2.216 4.623-2.54v9.512l-8.45 11.672c-1.765 2.44-1.099 5.876 1.463 7.557a5.916 5.916 0 0 0 6.987-.376v3.593c0 2.962 2.597 5.434 5.708 5.434 3.11 0 5.708-2.472 5.708-5.434v-3.593a5.916 5.916 0 0 0 6.986.376c2.562-1.68 3.229-5.118 1.463-7.557l-8.45-11.672V56.36l8.651 4.756L67.83 73.92c1.337 2.676 4.798 3.842 7.606 2.571a5.63 5.63 0 0 0 2.467-2.14 5.24 5.24 0 0 0 .685-3.809l3.269 1.797c2.693 1.48 6.24.578 7.797-1.989 1.557-2.566.603-5.941-2.091-7.422l-3.267-1.794c1.33-.436 2.444-1.327 3.12-2.468.544-.917.808-2 .715-3.105-.248-2.952-3.043-5.22-6.143-4.984l-14.845 1.129-4.032-2.216-4.62-2.54 8.652-4.756 14.845 1.131c3.1.236 5.895-2.031 6.143-4.983a5.235 5.235 0 0 0-.714-3.105c-.677-1.142-1.793-2.033-3.124-2.468l3.27-1.797c2.691-1.48 3.646-4.855 2.09-7.42-1.555-2.565-5.1-3.472-7.796-1.99l-3.27 1.796a5.24 5.24 0 0 0-.684-3.807 5.628 5.628 0 0 0-2.467-2.142c-2.81-1.272-6.27-.101-7.606 2.573l-6.395 12.802-8.65 4.755V28.03l8.449-11.672c1.765-2.44 1.099-5.876-1.463-7.557a5.916 5.916 0 0 0-6.987.376V5.583c0-2.96-2.597-5.433-5.708-5.433zm0 2.805c1.53 0 2.76 1.172 2.76 2.629V17.89l4.423-6.107a2.799 2.799 0 0 1 2.3-1.14 2.853 2.853 0 0 1 1.54.467c1.26.826 1.576 2.457.708 3.656l-8.97 12.391v15.24l13.865-7.62 6.788-13.59c.657-1.315 2.298-1.871 3.68-1.246.518.234.925.602 1.195 1.037a2.51 2.51 0 0 1 .113 2.466l-3.344 6.699L83.33 23.99c1.324-.728 3.008-.298 3.772.963.765 1.261.314 2.86-1.011 3.59l-11.198 6.152 7.77.594c.953.072 1.752.59 2.187 1.325.261.44.39.96.345 1.504-.122 1.452-1.448 2.527-2.973 2.41l-15.758-1.2L52.6 46.95l9.04 4.97 4.825 2.652 15.758-1.198c1.525-.116 2.85.958 2.973 2.41a2.525 2.525 0 0 1-.345 1.504c-.435.735-1.234 1.253-2.187 1.325l-7.767.592 11.195 6.153c1.325.728 1.777 2.33 1.012 3.591-.765 1.261-2.448 1.69-3.773.961l-11.195-6.153 3.345 6.7c.41.821.337 1.741-.114 2.467-.27.435-.677.8-1.195 1.035-1.382.625-3.023.072-3.68-1.244l-6.788-13.591-13.865-7.621v15.242l8.97 12.391c.868 1.2.552 2.83-.707 3.656a2.854 2.854 0 0 1-1.54.468 2.797 2.797 0 0 1-2.301-1.14l-4.422-6.108V88.32c0 1.456-1.231 2.628-2.761 2.628s-2.76-1.172-2.76-2.628V76.012l-4.423 6.107a2.799 2.799 0 0 1-2.3 1.14 2.853 2.853 0 0 1-1.54-.467c-1.26-.826-1.576-2.457-.708-3.656l8.97-12.391V51.503l-9.043 4.969-4.825 2.652-6.788 13.591c-.657 1.316-2.298 1.87-3.68 1.244a2.71 2.71 0 0 1-1.195-1.035 2.514 2.514 0 0 1-.113-2.468l3.347-6.701L10.82 69.91c-1.324.728-3.005.3-3.77-.96-.765-1.262-.315-2.864 1.01-3.592l11.194-6.153-7.767-.592c-.953-.072-1.752-.59-2.187-1.325-.26-.44-.39-.96-.345-1.504.122-1.452 1.448-2.526 2.973-2.41l15.758 1.198 4.825-2.653 9.043-4.969-13.868-7.62-15.758 1.2c-1.525.116-2.85-.959-2.973-2.41a2.525 2.525 0 0 1 .345-1.505c.435-.735 1.234-1.253 2.187-1.325l7.77-.592L8.06 28.543c-1.324-.728-1.774-2.328-1.009-3.589.765-1.261 2.445-1.691 3.77-.963l11.198 6.155-3.347-6.701a2.51 2.51 0 0 1 .113-2.466c.27-.435.677-.803 1.195-1.037 1.382-.625 3.023-.07 3.68 1.246l6.788 13.59 13.868 7.62v-15.24l-8.97-12.391c-.868-1.2-.552-2.83.707-3.656a2.854 2.854 0 0 1 1.54-.467 2.797 2.797 0 0 1 2.301 1.14l4.422 6.107V5.584c0-1.457 1.231-2.629 2.761-2.629z"/></svg>